<svg width="1000" height="1000" viewBox="0 0 1000 1000" fill="none" xmlns="http://www.w3.org/2000/svg">
<path d="M539.925 891.93C482.432 891.93 436.916 882.332 403.378 863.135C369.841 843.338 345.885 814.244 331.512 775.85C317.737 737.457 310.85 687.666 310.85 626.476V397.016C310.85 366.422 306.658 343.925 298.273 329.528C289.889 314.531 273.12 307.032 247.967 307.032H230V289.035H310.85C333.009 289.035 349.478 292.034 360.258 298.033C371.637 303.432 379.722 313.631 384.513 328.628C389.304 343.625 391.7 366.422 391.7 397.016V653.471C391.7 720.06 403.977 770.451 428.532 804.645C453.086 838.839 493.811 855.936 550.705 855.936C596.221 855.936 632.154 847.838 658.505 831.64C685.455 815.443 704.619 790.848 715.998 757.853C727.377 724.859 733.067 681.067 733.067 626.476V289.035H769V626.476C769 688.865 762.412 739.257 749.237 777.65C736.061 815.443 712.704 843.938 679.167 863.135C646.228 882.332 599.814 891.93 539.925 891.93Z" fill="white"/>
<path d="M304.661 207.013C291.485 207.013 280.106 202.214 270.524 192.615C260.942 183.017 256.151 171.319 256.151 157.522C256.151 144.324 260.942 132.926 270.524 123.327C280.106 113.729 291.485 108.93 304.661 108.93C318.435 108.93 329.814 113.729 338.798 123.327C348.38 132.926 353.171 144.324 353.171 157.522C353.171 171.319 348.38 183.017 338.798 192.615C329.215 202.214 317.836 207.013 304.661 207.013Z" fill="white"/>
</svg>
