<svg width="512" height="200" viewBox="0 0 512 200" fill="none" xmlns="http://www.w3.org/2000/svg">
<path d="M52.1427 108.019C44.3249 108.019 38.1359 106.71 33.5755 104.093C29.0151 101.394 25.7577 97.4268 23.8033 92.192C21.9303 86.9572 20.9938 80.1683 20.9938 71.8253V40.5392C20.9938 36.3677 20.4237 33.3004 19.2836 31.3374C18.1435 29.2925 15.8633 28.2701 12.4431 28.2701H10V25.8163H20.9938C24.0069 25.8163 26.2463 26.2252 27.7122 27.0432C29.2594 27.7793 30.3588 29.1698 31.0103 31.2147C31.6618 33.2595 31.9875 36.3677 31.9875 40.5392V75.5061C31.9875 84.5852 33.6569 91.4559 36.9958 96.1181C40.3346 100.78 45.8722 103.111 53.6086 103.111C59.7976 103.111 64.6837 102.007 68.2669 99.7988C71.9315 97.5904 74.5374 94.2369 76.0847 89.7382C77.6319 85.2395 78.4056 79.2686 78.4056 71.8253V25.8163H83.2917V71.8253C83.2917 80.3319 82.3959 87.2026 80.6043 92.4374C78.8128 97.5904 75.6368 101.476 71.0764 104.093C66.5975 106.71 60.2862 108.019 52.1427 108.019Z" fill="#1F2124"/>
<path d="M125.743 42.3795V106.792H120.857V40.5392C120.857 36.6131 120.001 33.5867 118.291 31.46C116.663 29.3334 113.853 28.2701 109.863 28.2701H108.641V25.8163H116.581C120.327 25.8163 123.503 26.4297 126.109 27.6566C128.715 28.8835 131.036 30.7239 133.072 33.1777L175.825 86.5482V25.8163H180.711V108.019H178.268L125.743 42.3795Z" fill="#1F2124"/>
<path d="M215.595 40.1711C213.559 35.427 211.645 32.1962 209.853 30.4785C208.062 28.679 205.497 27.6157 202.158 27.2886V24.8347C202.565 24.8347 203.176 24.7938 203.99 24.712C204.723 24.6303 205.497 24.5894 206.311 24.5894C210.383 24.5894 214.292 25.6527 218.038 27.7793C221.784 29.8242 224.96 33.9548 227.566 40.1711L248.454 89.6155L255.661 72.8069C259.081 64.8728 265.637 49.2093 275.327 25.8163H281.191L246.133 108.019H243.934L215.595 40.1711Z" fill="#1F2124"/>
<path d="M311.442 40.5392C311.442 36.3677 310.872 33.3004 309.731 31.3374C308.591 29.2925 306.311 28.2701 302.891 28.2701H300.448V25.8163H352.485C359.407 25.8163 362.868 29.088 362.868 35.6315V44.8333H360.425C360.425 35.427 355.335 30.7239 345.156 30.7239H322.435V62.6235H355.417V67.5311H322.435V101.885H343.812C349.431 101.885 353.829 100.862 357.005 98.8173C360.181 96.7725 362.705 93.2962 364.578 88.3886L367.021 89.002L362.746 100.658C361.28 104.747 358.226 106.792 353.584 106.792H311.442V40.5392Z" fill="#1F2124"/>
<path d="M407.068 106.792C404.055 106.792 401.775 106.424 400.228 105.688C398.762 104.87 397.703 103.439 397.052 101.394C396.4 99.349 396.074 96.2408 396.074 92.0693V25.8163H407.068V92.0693C407.068 96.2408 407.638 99.349 408.778 101.394C409.918 103.357 412.199 104.338 415.619 104.338H418.062V106.792H407.068Z" fill="#1F2124"/>
<path d="M447.642 40.5392C447.642 36.3677 447.072 33.3004 445.932 31.3374C444.792 29.2925 442.512 28.2701 439.091 28.2701H436.648V25.8163H447.642C450.655 25.8163 452.895 26.2252 454.36 27.0432C455.908 27.7793 457.007 29.1698 457.659 31.2147C458.31 33.2595 458.636 36.3677 458.636 40.5392V101.885H502V106.792H447.642V40.5392Z" fill="#1F2124"/>
<path d="M207.616 175.411C201.763 175.411 197.819 174.388 195.783 172.344C194.918 171.474 194.383 170.503 194.18 169.43C193.976 168.305 193.874 166.592 193.874 164.292H195.401C195.859 166.848 196.953 168.842 198.684 170.273C200.465 171.653 202.934 172.344 206.089 172.344C208.889 172.344 210.976 171.858 212.35 170.887C213.775 169.915 214.487 168.612 214.487 166.976C214.487 165.493 213.928 164.215 212.808 163.142C211.739 162.068 210.009 161.046 207.616 160.074L203.036 158.157C199.982 156.93 197.691 155.499 196.165 153.863C194.638 152.227 193.874 150.208 193.874 147.805C193.874 144.687 195.045 142.259 197.386 140.521C199.727 138.731 202.756 137.837 206.471 137.837C212.07 137.837 215.887 138.859 217.923 140.904C218.788 141.773 219.323 142.744 219.526 143.818C219.73 144.891 219.832 146.604 219.832 148.956H218.305C217.898 146.4 216.829 144.431 215.098 143.051C213.368 141.62 211.001 140.904 207.998 140.904C205.606 140.904 203.723 141.415 202.349 142.438C201.025 143.409 200.364 144.687 200.364 146.272C200.364 148.93 202.399 151.103 206.471 152.79L211.052 154.707C214.513 156.138 217.032 157.672 218.61 159.308C220.188 160.892 220.977 162.937 220.977 165.442C220.977 168.561 219.73 171.014 217.236 172.804C214.742 174.542 211.535 175.411 207.616 175.411Z" fill="#1F2124"/>
<path d="M256.805 175.411C252.479 175.411 248.789 173.366 245.735 169.276L236.573 157.007V174.644H229.702V133.236C229.702 130.629 229.346 128.712 228.633 127.485C227.921 126.207 226.496 125.568 224.358 125.568H222.831V124.034H229.702C231.585 124.034 232.985 124.29 233.901 124.801C234.868 125.261 235.555 126.13 235.963 127.408C236.37 128.686 236.573 130.629 236.573 133.236V155.857L246.117 143.588C247.44 141.952 248.84 140.725 250.316 139.907C251.792 139.038 253.7 138.604 256.041 138.604H258.332V140.521C256.958 140.521 255.634 140.802 254.362 141.364C253.089 141.926 251.995 142.795 251.079 143.971L242.681 154.707L252.224 166.976C253.7 168.918 255.074 170.375 256.347 171.347C257.67 172.318 259.095 172.931 260.622 173.187V174.644C259.502 175.155 258.23 175.411 256.805 175.411Z" fill="#1F2124"/>
<path d="M270.803 134.003C269.632 134.003 268.614 133.517 267.749 132.546C266.935 131.574 266.528 130.424 266.528 129.095C266.528 128.021 266.833 127.178 267.444 126.564C268.105 125.951 268.971 125.644 270.04 125.644C271.21 125.644 272.203 126.13 273.017 127.101C273.882 128.073 274.315 129.223 274.315 130.552C274.315 131.625 273.984 132.469 273.322 133.082C272.712 133.696 271.872 134.003 270.803 134.003ZM267.902 147.805C267.902 145.198 267.546 143.281 266.833 142.054C266.12 140.776 264.695 140.137 262.558 140.137H261.031V138.604H267.902C269.785 138.604 271.185 138.859 272.101 139.37C273.068 139.83 273.755 140.699 274.162 141.978C274.569 143.256 274.773 145.198 274.773 147.805V174.644H267.902V147.805Z" fill="#1F2124"/>
<path d="M286.69 147.805C286.69 145.198 286.334 143.281 285.621 142.054C284.909 140.776 283.484 140.137 281.346 140.137H279.819V138.604H286.69C288.573 138.604 289.998 138.859 290.965 139.37C291.983 139.882 292.721 140.648 293.179 141.671H293.561C294.63 140.597 296.004 139.703 297.684 138.987C299.414 138.22 301.348 137.837 303.486 137.837C307.303 137.837 310.408 138.859 312.8 140.904C315.243 142.949 316.465 146.527 316.465 151.639V174.644H309.594V151.639C309.594 148.061 308.779 145.454 307.151 143.818C305.573 142.131 303.588 141.287 301.196 141.287C298.498 141.287 295.953 142.642 293.561 145.352V174.644H286.69V147.805Z" fill="#1F2124"/>
</svg>
